<svg width="15" height="15" viewBox="0 0 15 15" fill="none" xmlns="http://www.w3.org/2000/svg">
<path d="M13.3021 5.1724L9.58282 4.63187L7.92022 1.26127C7.87481 1.16898 7.8001 1.09427 7.70781 1.04886C7.47637 0.934606 7.19512 1.02982 7.0794 1.26127L5.4168 4.63187L1.69756 5.1724C1.59502 5.18705 1.50127 5.23539 1.42949 5.30863C1.34272 5.39782 1.2949 5.51781 1.29655 5.64224C1.2982 5.76666 1.34918 5.88534 1.43828 5.9722L4.1292 8.59574L3.49346 12.3003C3.47855 12.3865 3.48809 12.4751 3.52099 12.5562C3.55389 12.6372 3.60883 12.7074 3.67959 12.7588C3.75036 12.8102 3.8341 12.8407 3.92134 12.8469C4.00857 12.8532 4.09581 12.8348 4.17315 12.794L7.49981 11.045L10.8265 12.794C10.9173 12.8423 11.0228 12.8584 11.1238 12.8409C11.3787 12.7969 11.5501 12.5552 11.5062 12.3003L10.8704 8.59574L13.5613 5.9722C13.6346 5.90043 13.6829 5.80668 13.6976 5.70414C13.7371 5.44779 13.5584 5.21049 13.3021 5.1724V5.1724Z" fill="#D8D8DD"/>
<mask id="mask0_30_1304" style="mask-type:alpha" maskUnits="userSpaceOnUse" x="1" y="1" width="13" height="12">
<path d="M13.3021 5.1724L9.58282 4.63187L7.92022 1.26127C7.87481 1.16898 7.8001 1.09427 7.70781 1.04886C7.47637 0.934606 7.19512 1.02982 7.0794 1.26127L5.4168 4.63187L1.69756 5.1724C1.59502 5.18705 1.50127 5.23539 1.42949 5.30863C1.34272 5.39782 1.2949 5.51781 1.29655 5.64224C1.2982 5.76666 1.34918 5.88534 1.43828 5.9722L4.1292 8.59574L3.49346 12.3003C3.47855 12.3865 3.48809 12.4751 3.52099 12.5562C3.55389 12.6372 3.60883 12.7074 3.67959 12.7588C3.75036 12.8102 3.8341 12.8407 3.92134 12.8469C4.00857 12.8532 4.09581 12.8348 4.17315 12.794L7.49981 11.045L10.8265 12.794C10.9173 12.8423 11.0228 12.8584 11.1238 12.8409C11.3787 12.7969 11.5501 12.5552 11.5062 12.3003L10.8704 8.59574L13.5613 5.9722C13.6346 5.90043 13.6829 5.80668 13.6976 5.70414C13.7371 5.44779 13.5584 5.21049 13.3021 5.1724Z" fill="#F4CD0C"/>
</mask>
<g mask="url(#mask0_30_1304)">
<rect x="-9" width="66" height="75" fill="#F4B30C"/>
</g>
</svg>
