<svg width="47" height="47" viewBox="0 0 47 47" fill="none" xmlns="http://www.w3.org/2000/svg">
<path d="M43.5759 10.5224L25.1116 0.419534C24.6179 0.148073 24.0636 0.0057373 23.5001 0.0057373C22.9367 0.0057373 22.3824 0.148073 21.8887 0.419534L3.42443 10.5287C2.89712 10.8172 2.45695 11.242 2.14987 11.7588C1.84279 12.2755 1.68008 12.8652 1.67871 13.4662V33.5336C1.68008 34.1346 1.84279 34.7243 2.14987 35.241C2.45695 35.7577 2.89712 36.1825 3.42443 36.4711L21.8887 46.5782C22.3821 46.8507 22.9365 46.9937 23.5001 46.9937C24.0638 46.9937 24.6182 46.8507 25.1116 46.5782L43.5759 36.4711C44.1032 36.1825 44.5433 35.7577 44.8504 35.241C45.1575 34.7243 45.3202 34.1346 45.3216 33.5336V13.4662C45.3213 12.8641 45.1591 12.2731 44.852 11.7552C44.5449 11.2372 44.1041 10.8115 43.5759 10.5224ZM31.893 28.5356V39.0456L25.1787 42.7216V24.4944L41.9644 15.3043V22.0186L32.7659 27.0543C32.5003 27.1995 32.279 27.4139 32.1254 27.6747C31.9717 27.9355 31.8914 28.2329 31.893 28.5356ZM14.2344 27.0669L5.03585 22.0311V15.3169L21.8216 24.507V42.7342L15.1073 39.0456V28.5356C15.1066 28.2351 15.0252 27.9402 14.8717 27.6819C14.7182 27.4235 14.4981 27.2111 14.2344 27.0669ZM14.0876 8.51654L22.6902 13.227C22.9373 13.3622 23.2143 13.433 23.4959 13.433C23.7775 13.433 24.0546 13.3622 24.3017 13.227L32.9043 8.51654L40.139 12.4759L23.5001 21.5863L6.85291 12.4717L14.0876 8.51654ZM23.5001 3.35703L29.4171 6.59668L23.5001 9.83842L17.5832 6.59878L23.5001 3.35703ZM5.03585 25.8541L11.7501 29.5302V37.2075L5.03585 33.5336V25.8541ZM35.2501 37.2075V29.5302L41.9644 25.8541V33.5336L35.2501 37.2075Z" fill="#939393"/>
</svg>
