<svg width="34" height="34" viewBox="0 0 34 34" fill="none" xmlns="http://www.w3.org/2000/svg">
<path d="M22.0017 13.5017L18.5021 17L22.0017 20.4983C22.1004 20.597 22.1787 20.7142 22.2322 20.8432C22.2856 20.9722 22.3131 21.1104 22.3131 21.25C22.3131 21.3896 22.2856 21.5278 22.2322 21.6568C22.1787 21.7858 22.1004 21.903 22.0017 22.0017C21.903 22.1004 21.7858 22.1787 21.6568 22.2322C21.5279 22.2856 21.3896 22.3131 21.25 22.3131C21.1104 22.3131 20.9722 22.2856 20.8432 22.2322C20.7142 22.1787 20.597 22.1004 20.4983 22.0017L17 18.5021L13.5017 22.0017C13.403 22.1004 13.2858 22.1787 13.1568 22.2322C13.0279 22.2856 12.8896 22.3131 12.75 22.3131C12.6104 22.3131 12.4722 22.2856 12.3432 22.2322C12.2142 22.1787 12.097 22.1004 11.9983 22.0017C11.8996 21.903 11.8213 21.7858 11.7678 21.6568C11.7144 21.5278 11.6869 21.3896 11.6869 21.25C11.6869 21.1104 11.7144 20.9722 11.7678 20.8432C11.8213 20.7142 11.8996 20.597 11.9983 20.4983L15.4979 17L11.9983 13.5017C11.7989 13.3024 11.6869 13.0319 11.6869 12.75C11.6869 12.4681 11.7989 12.1976 11.9983 11.9983C12.1977 11.7989 12.4681 11.6869 12.75 11.6869C13.032 11.6869 13.3024 11.7989 13.5017 11.9983L17 15.4979L20.4983 11.9983C20.597 11.8996 20.7142 11.8213 20.8432 11.7678C20.9722 11.7144 21.1104 11.6869 21.25 11.6869C21.3896 11.6869 21.5279 11.7144 21.6568 11.7678C21.7858 11.8213 21.903 11.8996 22.0017 11.9983C22.1004 12.097 22.1787 12.2142 22.2322 12.3432C22.2856 12.4722 22.3131 12.6104 22.3131 12.75C22.3131 12.8896 22.2856 13.0278 22.2322 13.1568C22.1787 13.2858 22.1004 13.403 22.0017 13.5017ZM30.8125 17C30.8125 19.7319 30.0024 22.4024 28.4847 24.6738C26.9669 26.9453 24.8097 28.7157 22.2858 29.7611C19.7619 30.8065 16.9847 31.0801 14.3053 30.5471C11.626 30.0141 9.16481 28.6986 7.23309 26.7669C5.30138 24.8352 3.98587 22.374 3.45291 19.6947C2.91995 17.0153 3.19348 14.2381 4.23892 11.7142C5.28436 9.19028 7.05474 7.03306 9.32619 5.51533C11.5976 3.99759 14.2682 3.1875 17 3.1875C20.6621 3.19137 24.1731 4.64785 26.7626 7.23736C29.3522 9.82687 30.8086 13.3379 30.8125 17ZM28.6875 17C28.6875 14.6884 28.002 12.4288 26.7178 10.5068C25.4336 8.58477 23.6082 7.08676 21.4726 6.20216C19.337 5.31756 16.987 5.08611 14.7199 5.53707C12.4527 5.98804 10.3702 7.10116 8.7357 8.73569C7.10117 10.3702 5.98804 12.4527 5.53708 14.7199C5.08611 16.987 5.31756 19.337 6.20216 21.4726C7.08676 23.6082 8.58478 25.4336 10.5068 26.7178C12.4288 28.002 14.6884 28.6875 17 28.6875C20.0986 28.684 23.0694 27.4515 25.2604 25.2604C27.4515 23.0694 28.684 20.0986 28.6875 17Z" fill="white"/>
</svg>
